<svg width="132" height="167" viewBox="0 0 132 167" fill="none" xmlns="http://www.w3.org/2000/svg">
<path d="M3.4076 73.1061C39.4055 78.9418 91.72 79.8997 117.57 51.8942C123.646 45.3118 136.075 16.3686 124.917 7.9154C110.762 -2.80839 91.3775 6.78841 83.1164 18.9393C71.281 36.3476 68.0137 67.4271 71.5178 88.3273C74.3193 105.037 80.0568 119.471 85.3869 135.44C88.0253 143.345 94.4213 152.626 95.3702 160.703C96.5773 170.976 105.991 139.543 105.799 132.749C105.761 131.418 101.32 154.858 104.054 162.647C105.416 166.528 90.1087 158.692 88.6186 158.019C78.0123 153.223 66.5717 150.539 55.3839 148.033" stroke="red" stroke-width="5" stroke-linecap="round"/>
</svg>
