<svg width="34" height="34" viewBox="0 0 34 34" fill="none" xmlns="http://www.w3.org/2000/svg">
<circle cx="17" cy="17" r="17" fill="white"/>
<path d="M17 11.4839C13.9535 11.4839 11.4839 13.9535 11.4839 17C11.4839 20.0465 13.9535 22.5161 17 22.5161C20.0465 22.5161 22.5161 20.0465 22.5161 17C22.5161 13.9535 20.0465 11.4839 17 11.4839Z" fill="#547C45"/>
<path fill-rule="evenodd" clip-rule="evenodd" d="M17 8C17.481 8 17.871 8.38995 17.871 8.87097V8.93775C17.871 9.41877 17.481 9.80872 17 9.80872C16.519 9.80872 16.129 9.41877 16.129 8.93775V8.87097C16.129 8.38995 16.519 8 17 8ZM10.5777 10.5777C10.9178 10.2375 11.4693 10.2375 11.8094 10.5777L11.915 10.6833C12.2551 11.0234 12.2551 11.5749 11.915 11.915C11.5749 12.2551 11.0234 12.2551 10.6833 11.915L10.5777 11.8094C10.2375 11.4693 10.2375 10.9178 10.5777 10.5777ZM23.4224 10.5777C23.7625 10.9178 23.7625 11.4693 23.4224 11.8094L23.3168 11.915C22.9766 12.2551 22.4252 12.2551 22.085 11.915C21.7449 11.5749 21.7449 11.0234 22.085 10.6833L22.1906 10.5777C22.5308 10.2375 23.0822 10.2375 23.4224 10.5777ZM8 17C8 16.519 8.38995 16.129 8.87097 16.129H8.93775C9.41877 16.129 9.80872 16.519 9.80872 17C9.80872 17.481 9.41877 17.871 8.93775 17.871H8.87097C8.38995 17.871 8 17.481 8 17ZM24.1913 17C24.1913 16.519 24.5813 16.129 25.0623 16.129H25.129C25.6101 16.129 26 16.519 26 17C26 17.481 25.6101 17.871 25.129 17.871H25.0623C24.5813 17.871 24.1913 17.481 24.1913 17ZM22.085 22.0851C22.4251 21.7449 22.9765 21.7449 23.3167 22.085L23.4223 22.1905C23.7624 22.5306 23.7625 23.0821 23.4224 23.4223C23.0823 23.7624 22.5308 23.7625 22.1906 23.4224L22.0851 23.3168C21.7449 22.9767 21.7449 22.4253 22.085 22.0851ZM11.9149 22.085C12.2551 22.4251 12.2552 22.9765 11.9151 23.3167L11.8095 23.4223C11.4694 23.7625 10.9179 23.7625 10.5778 23.4224C10.2376 23.0824 10.2375 22.5309 10.5776 22.1907L10.6832 22.0851C11.0233 21.7449 11.5747 21.7449 11.9149 22.085ZM17 24.1913C17.481 24.1913 17.871 24.5813 17.871 25.0623V25.129C17.871 25.6101 17.481 26 17 26C16.519 26 16.129 25.6101 16.129 25.129V25.0623C16.129 24.5813 16.519 24.1913 17 24.1913Z" fill="#547C45"/>
</svg>
