<svg width="18" height="18" viewBox="0 0 18 18" fill="none" xmlns="http://www.w3.org/2000/svg">
<path d="M15.8417 0.266356C15.7159 -0.088785 15.2137 -0.0887853 15.0878 0.266355L14.6565 1.48356C14.6162 1.59724 14.5268 1.68667 14.4131 1.72695L13.1959 2.15825C12.8408 2.28409 12.8408 2.78633 13.1959 2.91217L14.4131 3.34347C14.5268 3.38375 14.6162 3.47318 14.6565 3.58686L15.0878 4.80406C15.2137 5.1592 15.7159 5.1592 15.8417 4.80406L16.273 3.58686C16.3133 3.47318 16.4028 3.38375 16.5164 3.34347L17.7336 2.91217C18.0888 2.78633 18.0888 2.28409 17.7336 2.15825L16.5164 1.72695C16.4028 1.68667 16.3133 1.59724 16.273 1.48356L15.8417 0.266356Z" fill="white"/>
<path d="M11.148 4.24033C11.235 3.995 11.5819 3.995 11.6689 4.24033L11.9066 4.9112C11.9344 4.98973 11.9962 5.05151 12.0747 5.07934L12.7456 5.31705C12.9909 5.40398 12.9909 5.75094 12.7456 5.83787L12.0747 6.07558C11.9962 6.1034 11.9344 6.16518 11.9066 6.24371L11.6689 6.91458C11.5819 7.15991 11.235 7.15991 11.148 6.91458L10.9103 6.24371C10.8825 6.16518 10.8207 6.1034 10.7422 6.07558L10.0713 5.83787C9.82599 5.75094 9.82599 5.40398 10.0713 5.31705L10.7422 5.07934C10.8207 5.05151 10.8825 4.98973 10.9103 4.9112L11.148 4.24033Z" fill="white"/>
<path d="M13.7701 7.22125C13.828 7.05769 14.0593 7.05769 14.1173 7.22125L14.2757 7.66849C14.2943 7.72085 14.3355 7.76203 14.3878 7.78058L14.8351 7.93906C14.9986 7.99701 14.9986 8.22832 14.8351 8.28627L14.3878 8.44474C14.3355 8.46329 14.2943 8.50448 14.2757 8.55684L14.1173 9.00408C14.0593 9.16764 13.828 9.16764 13.7701 9.00408L13.6116 8.55684C13.593 8.50448 13.5518 8.46329 13.4995 8.44474L13.0522 8.28627C12.8887 8.22832 12.8887 7.99701 13.0522 7.93906L13.4995 7.78058C13.5518 7.76203 13.593 7.72085 13.6116 7.66849L13.7701 7.22125Z" fill="white"/>
<path d="M8.13468 1.65082C8.28945 1.92163 8.26318 2.25949 8.0684 2.50312C7.25111 3.52542 6.76722 4.80518 6.76722 6.19444C6.76722 9.5078 9.53765 12.2308 13.0014 12.2308C13.9528 12.2308 14.852 12.0249 15.656 11.6579C15.9386 11.529 16.2712 11.5848 16.4962 11.7989C16.7212 12.013 16.7933 12.3425 16.6785 12.6311C15.4249 15.7812 12.2868 18 8.6297 18C3.88437 18 0 14.2564 0 9.5929C0 5.35107 3.21566 1.86876 7.3667 1.27529C7.67548 1.23114 7.97992 1.38 8.13468 1.65082Z" fill="white"/>
</svg>
