<svg width="75" height="66" viewBox="0 0 75 66" fill="none" xmlns="http://www.w3.org/2000/svg">
<path d="M2 34.2249H22.3C27.655 34.2249 31.33 38.2849 31.33 43.2549V54.525C31.33 59.495 27.655 63.5549 22.3 63.5549H11.0301C6.06006 63.5549 2 59.495 2 54.525V34.2249" stroke="#131D1E" stroke-width="4" stroke-linecap="round" stroke-linejoin="round"/>
<path d="M2 34.2249C2 13.0499 5.9551 9.5501 17.8551 2.4801" stroke="#131D1E" stroke-width="4" stroke-linecap="round" stroke-linejoin="round"/>
<path d="M42.705 34.2249H63.005C68.36 34.2249 72.035 38.2849 72.035 43.2549V54.525C72.035 59.495 68.36 63.5549 63.005 63.5549H51.7351C46.7651 63.5549 42.705 59.495 42.705 54.525V34.2249" stroke="#131D1E" stroke-width="4" stroke-linecap="round" stroke-linejoin="round"/>
<path d="M42.705 34.2249C42.705 13.0499 46.6599 9.5501 58.5599 2.4801" stroke="#131D1E" stroke-width="4" stroke-linecap="round" stroke-linejoin="round"/>
</svg>
