<svg width="84" height="84" viewBox="0 0 84 84" fill="none" xmlns="http://www.w3.org/2000/svg">
<path d="M7 43.2249H27.3C32.655 43.2249 36.33 47.2849 36.33 52.2549V63.525C36.33 68.495 32.655 72.5549 27.3 72.5549H16.0301C11.0601 72.5549 7 68.495 7 63.525V43.2249" stroke="#131D1E" stroke-width="4" stroke-linecap="round" stroke-linejoin="round"/>
<path d="M7 43.2249C7 22.0499 10.9551 18.5501 22.8551 11.4801" stroke="#131D1E" stroke-width="4" stroke-linecap="round" stroke-linejoin="round"/>
<path d="M47.705 43.2249H68.005C73.36 43.2249 77.035 47.2849 77.035 52.2549V63.525C77.035 68.495 73.36 72.5549 68.005 72.5549H56.7351C51.7651 72.5549 47.705 68.495 47.705 63.525V43.2249" stroke="#131D1E" stroke-width="4" stroke-linecap="round" stroke-linejoin="round"/>
<path d="M47.705 43.2249C47.705 22.0499 51.6599 18.5501 63.5599 11.4801" stroke="#131D1E" stroke-width="4" stroke-linecap="round" stroke-linejoin="round"/>
</svg>
